<svg xmlns="http://www.w3.org/2000/svg" xmlns:xlink="http://www.w3.org/1999/xlink" viewBox="40 148 292 68" preserveAspectRatio="xMidYMid meet"><defs><g></g><clipPath id="e691057e7b"><path d="M 48.515625 156.761719 L 71.433594 156.761719 L 71.433594 187.75 L 48.515625 187.75 Z M 48.515625 156.761719 " clip-rule="nonzero"></path></clipPath><clipPath id="85d3d69995"><path d="M 71.320312 156.777344 L 48.5625 156.777344 L 51.292969 162.242188 L 57.210938 162.242188 L 57.210938 187.730469 L 62.671875 187.730469 L 62.671875 162.242188 L 68.589844 162.242188 Z M 71.320312 156.777344 " clip-rule="nonzero"></path></clipPath><clipPath id="858e890230"><path d="M 73 156.761719 L 121.308594 156.761719 L 121.308594 187.75 L 73 187.75 Z M 73 156.761719 " clip-rule="nonzero"></path></clipPath><clipPath id="272ac5b9b2"><path d="M 106.726562 182.269531 L 106.726562 174.992188 L 118.558594 174.992188 L 118.558594 169.527344 L 106.726562 169.527344 L 106.726562 162.242188 L 118.558594 162.242188 L 121.292969 156.777344 L 101.265625 156.777344 L 101.265625 169.527344 L 95.800781 169.527344 L 95.800781 156.777344 L 90.339844 156.777344 L 90.339844 169.527344 L 78.503906 169.527344 L 78.503906 156.777344 L 73.042969 156.777344 L 73.042969 187.730469 L 78.503906 187.730469 L 78.503906 174.992188 L 90.339844 174.992188 L 90.339844 187.730469 L 95.800781 187.730469 L 95.800781 174.992188 L 101.265625 174.992188 L 101.265625 187.730469 L 121.292969 187.730469 L 118.558594 182.269531 Z M 106.726562 182.269531 " clip-rule="nonzero"></path></clipPath><clipPath id="cab29616b1"><path d="M 125 156.277344 L 146 156.277344 L 146 188.234375 L 125 188.234375 Z M 125 156.277344 " clip-rule="nonzero"></path></clipPath><clipPath id="9549a0021b"><path d="M 127.738281 164.519531 C 127.738281 160.878906 131.386719 158.148438 135.023438 158.148438 C 140.941406 158.148438 143.398438 162.15625 143.398438 162.15625 L 145.035156 161.332031 C 145.035156 161.332031 142.300781 156.324219 135.015625 156.324219 C 129.550781 156.324219 125.914062 160.425781 125.914062 164.519531 C 125.914062 175.445312 144.117188 169.980469 144.117188 179.539062 C 144.117188 183.640625 140.023438 186.371094 135.921875 186.371094 C 129.550781 186.371094 126.640625 181.910156 126.640625 181.910156 L 125.007812 182.730469 C 125.007812 182.730469 128.644531 188.195312 135.933594 188.195312 C 142.300781 188.195312 145.949219 183.640625 145.949219 179.546875 C 145.949219 168.167969 127.738281 173.628906 127.738281 164.527344 " clip-rule="nonzero"></path></clipPath><clipPath id="f1bda79aff"><path d="M 151.8125 156.761719 L 170.046875 156.761719 L 170.046875 187.75 L 151.8125 187.75 Z M 151.8125 156.761719 " clip-rule="nonzero"></path></clipPath><clipPath id="3b829147e0"><path d="M 153.652344 185.917969 L 153.652344 173.167969 L 167.3125 173.167969 L 167.3125 171.351562 L 153.652344 171.351562 L 153.652344 158.601562 L 169.136719 158.601562 L 170.042969 156.777344 L 151.839844 156.777344 L 151.839844 187.730469 L 170.042969 187.730469 L 169.136719 185.917969 Z M 153.652344 185.917969 " clip-rule="nonzero"></path></clipPath><clipPath id="080d513dee"><path d="M 176.34375 156.761719 L 197.324219 156.761719 L 197.324219 187.75 L 176.34375 187.75 Z M 176.34375 156.761719 " clip-rule="nonzero"></path></clipPath><clipPath id="bc55778d51"><path d="M 197.292969 180.453125 L 196.382812 178.640625 L 185.457031 178.640625 L 185.457031 169.527344 L 194.558594 169.527344 L 194.558594 167.703125 L 185.457031 167.703125 L 185.457031 158.601562 L 196.382812 158.601562 L 197.292969 156.777344 L 183.632812 156.777344 L 183.632812 180.453125 Z M 178.171875 185.917969 L 178.171875 156.777344 L 176.347656 156.777344 L 176.347656 187.730469 L 197.292969 187.730469 L 196.382812 185.917969 Z M 178.171875 185.917969 " clip-rule="nonzero"></path></clipPath><clipPath id="2d8eb9cbd7"><path d="M 201.683594 156.277344 L 229.121094 156.277344 L 229.121094 188.234375 L 201.683594 188.234375 Z M 201.683594 156.277344 " clip-rule="nonzero"></path></clipPath><clipPath id="aeb980d077"><path d="M 217.707031 186.371094 C 209.929688 186.371094 203.597656 180.039062 203.597656 172.257812 C 203.597656 164.480469 209.929688 158.148438 217.707031 158.148438 C 221.894531 158.148438 225.628906 159.972656 228.226562 162.835938 L 229.085938 161.105469 C 226.175781 158.148438 222.167969 156.324219 217.707031 156.324219 C 208.925781 156.324219 201.773438 163.46875 201.773438 172.257812 C 201.773438 181.050781 208.917969 188.195312 217.707031 188.195312 C 222.167969 188.195312 226.175781 186.371094 229.085938 183.414062 L 228.226562 181.683594 C 225.628906 184.546875 221.894531 186.371094 217.707031 186.371094 " clip-rule="nonzero"></path></clipPath><clipPath id="01f18568d1"><path d="M 232.671875 156.761719 L 253.652344 156.761719 L 253.652344 187.75 L 232.671875 187.75 Z M 232.671875 156.761719 " clip-rule="nonzero"></path></clipPath><clipPath id="ef31eea663"><path d="M 253.632812 156.777344 L 232.695312 156.777344 L 233.613281 158.601562 L 242.261719 158.601562 L 242.261719 187.730469 L 244.085938 187.730469 L 244.085938 158.601562 L 252.734375 158.601562 Z M 253.632812 156.777344 " clip-rule="nonzero"></path></clipPath><clipPath id="8df28dd4ad"><path d="M 259.972656 156.777344 L 261.796875 156.777344 L 261.796875 187.730469 L 259.972656 187.730469 Z M 259.972656 156.777344 " clip-rule="nonzero"></path></clipPath><clipPath id="51931ba411"><path d="M 268.015625 156.277344 L 300.132812 156.277344 L 300.132812 188.234375 L 268.015625 188.234375 Z M 268.015625 156.277344 " clip-rule="nonzero"></path></clipPath><clipPath id="258b772572"><path d="M 284.105469 186.371094 C 276.316406 186.371094 269.992188 180.039062 269.992188 172.257812 C 269.992188 164.480469 276.324219 158.148438 284.105469 158.148438 C 291.882812 158.148438 298.214844 164.472656 298.214844 172.257812 C 298.214844 180.046875 291.882812 186.371094 284.105469 186.371094 M 284.105469 156.324219 C 275.3125 156.324219 268.167969 163.46875 268.167969 172.257812 C 268.167969 181.050781 275.3125 188.195312 284.105469 188.195312 C 292.894531 188.195312 300.039062 181.050781 300.039062 172.257812 C 300.039062 163.46875 292.882812 156.324219 284.105469 156.324219 " clip-rule="nonzero"></path></clipPath><clipPath id="c3fec5f919"><path d="M 305.460938 156.277344 L 326.441406 156.277344 L 326.441406 188.234375 L 305.460938 188.234375 Z M 305.460938 156.277344 " clip-rule="nonzero"></path></clipPath><clipPath id="d862ebeaf0"><path d="M 324.613281 156.777344 L 324.613281 182.589844 L 305.492188 156.324219 L 305.492188 187.730469 L 307.316406 187.730469 L 307.316406 161.929688 L 326.4375 188.195312 L 326.4375 156.777344 Z M 324.613281 156.777344 " clip-rule="nonzero"></path></clipPath></defs><g clip-path="url(#e691057e7b)"><g clip-path="url(#85d3d69995)"><path fill="#ffffff" d="M 43.835938 151.597656 L 331.121094 151.597656 L 331.121094 192.917969 L 43.835938 192.917969 Z M 43.835938 151.597656 " fill-opacity="1" fill-rule="nonzero"></path></g></g><g clip-path="url(#858e890230)"><g clip-path="url(#272ac5b9b2)"><path fill="#ffffff" d="M 43.835938 151.597656 L 331.121094 151.597656 L 331.121094 192.917969 L 43.835938 192.917969 Z M 43.835938 151.597656 " fill-opacity="1" fill-rule="nonzero"></path></g></g><g clip-path="url(#cab29616b1)"><g clip-path="url(#9549a0021b)"><path fill="#ffffff" d="M 43.835938 151.597656 L 331.121094 151.597656 L 331.121094 192.917969 L 43.835938 192.917969 Z M 43.835938 151.597656 " fill-opacity="1" fill-rule="nonzero"></path></g></g><g clip-path="url(#f1bda79aff)"><g clip-path="url(#3b829147e0)"><path fill="#ffffff" d="M 43.835938 151.597656 L 331.121094 151.597656 L 331.121094 192.917969 L 43.835938 192.917969 Z M 43.835938 151.597656 " fill-opacity="1" fill-rule="nonzero"></path></g></g><g clip-path="url(#080d513dee)"><g clip-path="url(#bc55778d51)"><path fill="#ffffff" d="M 43.835938 151.597656 L 331.121094 151.597656 L 331.121094 192.917969 L 43.835938 192.917969 Z M 43.835938 151.597656 " fill-opacity="1" fill-rule="nonzero"></path></g></g><g clip-path="url(#2d8eb9cbd7)"><g clip-path="url(#aeb980d077)"><path fill="#ffffff" d="M 43.835938 151.597656 L 331.121094 151.597656 L 331.121094 192.917969 L 43.835938 192.917969 Z M 43.835938 151.597656 " fill-opacity="1" fill-rule="nonzero"></path></g></g><g clip-path="url(#01f18568d1)"><g clip-path="url(#ef31eea663)"><path fill="#ffffff" d="M 43.835938 151.597656 L 331.121094 151.597656 L 331.121094 192.917969 L 43.835938 192.917969 Z M 43.835938 151.597656 " fill-opacity="1" fill-rule="nonzero"></path></g></g><g clip-path="url(#8df28dd4ad)"><path fill="#ffffff" d="M 43.835938 151.597656 L 331.121094 151.597656 L 331.121094 192.917969 L 43.835938 192.917969 Z M 43.835938 151.597656 " fill-opacity="1" fill-rule="nonzero"></path></g><g clip-path="url(#51931ba411)"><g clip-path="url(#258b772572)"><path fill="#ffffff" d="M 43.835938 151.597656 L 331.121094 151.597656 L 331.121094 192.917969 L 43.835938 192.917969 Z M 43.835938 151.597656 " fill-opacity="1" fill-rule="nonzero"></path></g></g><g clip-path="url(#c3fec5f919)"><g clip-path="url(#d862ebeaf0)"><path fill="#ffffff" d="M 43.835938 151.597656 L 331.121094 151.597656 L 331.121094 192.917969 L 43.835938 192.917969 Z M 43.835938 151.597656 " fill-opacity="1" fill-rule="nonzero"></path></g></g><g fill="#ffffff" fill-opacity="1"><g transform="translate(149.049343, 210.874283)"><g><path d="M 3.78125 -1.15625 C 3.78125 -0.820312 3.660156 -0.546875 3.421875 -0.328125 C 3.179688 -0.109375 2.90625 0 2.59375 0 C 2.238281 0 1.953125 -0.109375 1.734375 -0.328125 C 1.523438 -0.546875 1.421875 -0.820312 1.421875 -1.15625 L 1.421875 -12.078125 C 1.421875 -12.398438 1.53125 -12.671875 1.75 -12.890625 C 1.976562 -13.109375 2.269531 -13.21875 2.625 -13.21875 C 2.925781 -13.21875 3.191406 -13.109375 3.421875 -12.890625 C 3.660156 -12.671875 3.78125 -12.398438 3.78125 -12.078125 Z M 3.78125 -1.15625 "></path></g></g></g><g fill="#ffffff" fill-opacity="1"><g transform="translate(155.190803, 210.874283)"><g><path d="M 2.609375 -13.25 C 2.785156 -13.25 2.96875 -13.195312 3.15625 -13.09375 C 3.351562 -13 3.503906 -12.878906 3.609375 -12.734375 L 8.203125 -5.671875 L 7.25 -5.703125 L 11.953125 -12.734375 C 12.191406 -13.078125 12.503906 -13.25 12.890625 -13.25 C 13.191406 -13.25 13.457031 -13.140625 13.6875 -12.921875 C 13.925781 -12.703125 14.046875 -12.425781 14.046875 -12.09375 L 14.046875 -1.15625 C 14.046875 -0.820312 13.9375 -0.546875 13.71875 -0.328125 C 13.507812 -0.109375 13.234375 0 12.890625 0 C 12.535156 0 12.242188 -0.109375 12.015625 -0.328125 C 11.796875 -0.546875 11.6875 -0.820312 11.6875 -1.15625 L 11.6875 -10.046875 L 12.4375 -9.875 L 8.578125 -4 C 8.460938 -3.863281 8.316406 -3.742188 8.140625 -3.640625 C 7.972656 -3.546875 7.800781 -3.503906 7.625 -3.515625 C 7.46875 -3.503906 7.300781 -3.546875 7.125 -3.640625 C 6.957031 -3.742188 6.816406 -3.863281 6.703125 -4 L 3.09375 -9.703125 L 3.59375 -10.71875 L 3.59375 -1.15625 C 3.59375 -0.820312 3.488281 -0.546875 3.28125 -0.328125 C 3.082031 -0.109375 2.820312 0 2.5 0 C 2.175781 0 1.914062 -0.109375 1.71875 -0.328125 C 1.519531 -0.546875 1.421875 -0.820312 1.421875 -1.15625 L 1.421875 -12.09375 C 1.421875 -12.40625 1.535156 -12.675781 1.765625 -12.90625 C 1.992188 -13.132812 2.273438 -13.25 2.609375 -13.25 Z M 2.609375 -13.25 "></path></g></g></g><g fill="#ffffff" fill-opacity="1"><g transform="translate(171.611496, 210.874283)"><g><path d="M 6.875 -13.21875 C 7.53125 -13.21875 8.144531 -13.03125 8.71875 -12.65625 C 9.289062 -12.28125 9.753906 -11.769531 10.109375 -11.125 C 10.460938 -10.476562 10.640625 -9.757812 10.640625 -8.96875 C 10.640625 -8.1875 10.460938 -7.472656 10.109375 -6.828125 C 9.753906 -6.191406 9.289062 -5.679688 8.71875 -5.296875 C 8.144531 -4.910156 7.53125 -4.71875 6.875 -4.71875 L 3.40625 -4.71875 L 3.59375 -5.0625 L 3.59375 -1.15625 C 3.59375 -0.820312 3.488281 -0.546875 3.28125 -0.328125 C 3.082031 -0.109375 2.820312 0 2.5 0 C 2.175781 0 1.914062 -0.109375 1.71875 -0.328125 C 1.519531 -0.546875 1.421875 -0.820312 1.421875 -1.15625 L 1.421875 -12.078125 C 1.421875 -12.398438 1.53125 -12.671875 1.75 -12.890625 C 1.96875 -13.109375 2.238281 -13.21875 2.5625 -13.21875 Z M 6.875 -6.875 C 7.113281 -6.875 7.347656 -6.972656 7.578125 -7.171875 C 7.804688 -7.378906 7.992188 -7.640625 8.140625 -7.953125 C 8.296875 -8.273438 8.375 -8.613281 8.375 -8.96875 C 8.375 -9.332031 8.296875 -9.671875 8.140625 -9.984375 C 7.992188 -10.304688 7.804688 -10.5625 7.578125 -10.75 C 7.347656 -10.945312 7.113281 -11.046875 6.875 -11.046875 L 3.359375 -11.046875 L 3.59375 -11.390625 L 3.59375 -6.578125 L 3.375 -6.875 Z M 6.875 -6.875 "></path></g></g></g><g fill="#ffffff" fill-opacity="1"><g transform="translate(183.950721, 210.874283)"><g><path d="M 13.578125 -6.609375 C 13.578125 -5.660156 13.421875 -4.773438 13.109375 -3.953125 C 12.796875 -3.140625 12.351562 -2.421875 11.78125 -1.796875 C 11.207031 -1.179688 10.523438 -0.695312 9.734375 -0.34375 C 8.953125 0.0078125 8.09375 0.1875 7.15625 0.1875 C 6.226562 0.1875 5.375 0.0078125 4.59375 -0.34375 C 3.8125 -0.695312 3.132812 -1.179688 2.5625 -1.796875 C 1.988281 -2.421875 1.539062 -3.140625 1.21875 -3.953125 C 0.90625 -4.773438 0.75 -5.660156 0.75 -6.609375 C 0.75 -7.554688 0.90625 -8.4375 1.21875 -9.25 C 1.539062 -10.070312 1.988281 -10.796875 2.5625 -11.421875 C 3.132812 -12.046875 3.8125 -12.53125 4.59375 -12.875 C 5.375 -13.226562 6.226562 -13.40625 7.15625 -13.40625 C 8.09375 -13.40625 8.953125 -13.226562 9.734375 -12.875 C 10.523438 -12.53125 11.207031 -12.046875 11.78125 -11.421875 C 12.351562 -10.796875 12.796875 -10.070312 13.109375 -9.25 C 13.421875 -8.4375 13.578125 -7.554688 13.578125 -6.609375 Z M 11.125 -6.609375 C 11.125 -7.453125 10.953125 -8.21875 10.609375 -8.90625 C 10.273438 -9.59375 9.8125 -10.132812 9.21875 -10.53125 C 8.625 -10.9375 7.9375 -11.140625 7.15625 -11.140625 C 6.375 -11.140625 5.6875 -10.9375 5.09375 -10.53125 C 4.507812 -10.132812 4.050781 -9.59375 3.71875 -8.90625 C 3.382812 -8.226562 3.21875 -7.460938 3.21875 -6.609375 C 3.21875 -5.765625 3.382812 -5 3.71875 -4.3125 C 4.050781 -3.625 4.507812 -3.078125 5.09375 -2.671875 C 5.6875 -2.273438 6.375 -2.078125 7.15625 -2.078125 C 7.9375 -2.078125 8.625 -2.273438 9.21875 -2.671875 C 9.8125 -3.078125 10.273438 -3.625 10.609375 -4.3125 C 10.953125 -5 11.125 -5.765625 11.125 -6.609375 Z M 11.125 -6.609375 "></path></g></g></g><g fill="#ffffff" fill-opacity="1"><g transform="translate(199.237679, 210.874283)"><g><path d="M 2.78125 0 C 2.425781 0 2.109375 -0.109375 1.828125 -0.328125 C 1.554688 -0.546875 1.421875 -0.820312 1.421875 -1.15625 L 1.421875 -12.078125 C 1.421875 -12.398438 1.53125 -12.671875 1.75 -12.890625 C 1.96875 -13.109375 2.238281 -13.21875 2.5625 -13.21875 L 8.015625 -13.21875 C 8.660156 -13.21875 9.269531 -13.046875 9.84375 -12.703125 C 10.425781 -12.359375 10.890625 -11.878906 11.234375 -11.265625 C 11.585938 -10.660156 11.765625 -9.957031 11.765625 -9.15625 C 11.765625 -8.675781 11.664062 -8.207031 11.46875 -7.75 C 11.28125 -7.300781 11.019531 -6.894531 10.6875 -6.53125 C 10.351562 -6.164062 9.976562 -5.882812 9.5625 -5.6875 L 9.578125 -6.125 C 9.929688 -5.9375 10.222656 -5.710938 10.453125 -5.453125 C 10.691406 -5.191406 10.875 -4.910156 11 -4.609375 C 11.132812 -4.316406 11.210938 -4.003906 11.234375 -3.671875 C 11.285156 -3.347656 11.320312 -3.066406 11.34375 -2.828125 C 11.363281 -2.585938 11.398438 -2.382812 11.453125 -2.21875 C 11.515625 -2.0625 11.625 -1.9375 11.78125 -1.84375 C 12.0625 -1.6875 12.234375 -1.453125 12.296875 -1.140625 C 12.367188 -0.835938 12.300781 -0.566406 12.09375 -0.328125 C 11.945312 -0.160156 11.765625 -0.0507812 11.546875 0 C 11.335938 0.0390625 11.125 0.0390625 10.90625 0 C 10.695312 -0.0507812 10.523438 -0.113281 10.390625 -0.1875 C 10.171875 -0.3125 9.953125 -0.492188 9.734375 -0.734375 C 9.523438 -0.984375 9.351562 -1.316406 9.21875 -1.734375 C 9.09375 -2.148438 9.03125 -2.6875 9.03125 -3.34375 C 9.03125 -3.5625 8.988281 -3.757812 8.90625 -3.9375 C 8.832031 -4.125 8.726562 -4.28125 8.59375 -4.40625 C 8.457031 -4.539062 8.28125 -4.640625 8.0625 -4.703125 C 7.851562 -4.773438 7.601562 -4.8125 7.3125 -4.8125 L 3.5 -4.8125 L 3.78125 -5.25 L 3.78125 -1.15625 C 3.78125 -0.820312 3.691406 -0.546875 3.515625 -0.328125 C 3.335938 -0.109375 3.09375 0 2.78125 0 Z M 3.515625 -6.765625 L 7.921875 -6.765625 C 8.140625 -6.765625 8.351562 -6.867188 8.5625 -7.078125 C 8.78125 -7.285156 8.957031 -7.566406 9.09375 -7.921875 C 9.238281 -8.285156 9.3125 -8.679688 9.3125 -9.109375 C 9.3125 -9.660156 9.160156 -10.117188 8.859375 -10.484375 C 8.566406 -10.859375 8.253906 -11.046875 7.921875 -11.046875 L 3.546875 -11.046875 L 3.78125 -11.65625 L 3.78125 -6.3125 Z M 3.515625 -6.765625 "></path></g></g></g><g fill="#ffffff" fill-opacity="1"><g transform="translate(213.164144, 210.874283)"><g><path d="M 5.890625 0 C 5.535156 0 5.242188 -0.109375 5.015625 -0.328125 C 4.796875 -0.546875 4.6875 -0.820312 4.6875 -1.15625 L 4.6875 -12.109375 L 7.140625 -12.109375 L 7.140625 -1.15625 C 7.140625 -0.820312 7.019531 -0.546875 6.78125 -0.328125 C 6.550781 -0.109375 6.253906 0 5.890625 0 Z M 1.71875 -11.046875 C 1.394531 -11.046875 1.117188 -11.144531 0.890625 -11.34375 C 0.671875 -11.550781 0.5625 -11.816406 0.5625 -12.140625 C 0.5625 -12.472656 0.671875 -12.734375 0.890625 -12.921875 C 1.117188 -13.117188 1.394531 -13.21875 1.71875 -13.21875 L 10.109375 -13.21875 C 10.429688 -13.21875 10.703125 -13.117188 10.921875 -12.921875 C 11.148438 -12.722656 11.265625 -12.457031 11.265625 -12.125 C 11.265625 -11.800781 11.148438 -11.539062 10.921875 -11.34375 C 10.703125 -11.144531 10.429688 -11.046875 10.109375 -11.046875 Z M 1.71875 -11.046875 "></path></g></g></g></svg>